<svg width="98" height="32" viewBox="0 0 98 32" fill="none" xmlns="http://www.w3.org/2000/svg">
<path d="M11.0703 22L5.92969 15.1797H4.77344V22H1.39062V6H4.77344V12.3906H5.45313L10.7656 6H14.9766L8.73438 13.4219L15.2656 22H11.0703ZM19.7246 22H16.0996L21.623 6H25.9824L31.498 22H27.873L23.8652 9.65625H23.7402L19.7246 22ZM19.498 15.7109H28.0605V18.3516H19.498V15.7109ZM46.7891 11.6016H43.3672C43.3047 11.1589 43.1771 10.7656 42.9844 10.4219C42.7917 10.0729 42.5443 9.77604 42.2422 9.53125C41.9401 9.28646 41.5911 9.09896 41.1953 8.96875C40.8047 8.83854 40.3802 8.77344 39.9219 8.77344C39.0938 8.77344 38.3724 8.97917 37.7578 9.39062C37.1432 9.79687 36.6667 10.3906 36.3281 11.1719C35.9896 11.9479 35.8203 12.8906 35.8203 14C35.8203 15.1406 35.9896 16.099 36.3281 16.875C36.6719 17.651 37.151 18.237 37.7656 18.6328C38.3802 19.0286 39.0911 19.2266 39.8984 19.2266C40.3516 19.2266 40.7708 19.1667 41.1563 19.0469C41.5469 18.9271 41.8932 18.7526 42.1953 18.5234C42.4974 18.2891 42.7474 18.0052 42.9453 17.6719C43.1484 17.3385 43.2891 16.9583 43.3672 16.5312L46.7891 16.5469C46.7005 17.2812 46.4792 17.9896 46.125 18.6719C45.776 19.349 45.3047 19.9557 44.7109 20.4922C44.1224 21.0234 43.4193 21.4453 42.6016 21.7578C41.7891 22.0651 40.8698 22.2187 39.8438 22.2187C38.4167 22.2187 37.1406 21.8958 36.0156 21.25C34.8958 20.6042 34.0104 19.6693 33.3594 18.4453C32.7135 17.2214 32.3906 15.7396 32.3906 14C32.3906 12.2552 32.7188 10.7708 33.375 9.54688C34.0313 8.32292 34.9219 7.39062 36.0469 6.75C37.1719 6.10417 38.4375 5.78125 39.8438 5.78125C40.7708 5.78125 41.6302 5.91146 42.4219 6.17187C43.2188 6.43229 43.9245 6.8125 44.5391 7.3125C45.1536 7.80729 45.6536 8.41406 46.0391 9.13281C46.4297 9.85156 46.6797 10.6745 46.7891 11.6016ZM58.8945 22L53.7539 15.1797H52.5977V22H49.2148V6H52.5977V12.3906H53.2773L58.5898 6H62.8008L56.5586 13.4219L63.0898 22H58.8945ZM67.5488 22H63.9238L69.4473 6H73.8066L79.3223 22H75.6973L71.6895 9.65625H71.5645L67.5488 22ZM67.3223 15.7109H75.8848V18.3516H67.3223V15.7109ZM80.3809 25.8594V19.3047H81.4668C81.8366 19.0391 82.1751 18.6641 82.4824 18.1797C82.7897 17.6901 83.0527 17.0156 83.2715 16.1562C83.4902 15.2917 83.6465 14.1615 83.7402 12.7656L84.1934 6H94.7793V19.3047H96.5293V25.8438H93.2793V22H83.6309V25.8594H80.3809ZM85.373 19.3047H91.5293V8.78906H87.2402L86.9902 12.7656C86.9225 13.8229 86.8105 14.7604 86.6543 15.5781C86.5033 16.3958 86.3184 17.112 86.0996 17.7266C85.8861 18.3359 85.6439 18.862 85.373 19.3047Z" fill="#0D1B2A"/>
</svg>
