<svg width="213" height="38" viewBox="0 0 213 38" fill="none" xmlns="http://www.w3.org/2000/svg">
<path d="M31.3824 38.8118H22.3262L8.68921 19.7109V38.8118H0.738708V1.13777H8.68921V19.3944L22.1682 1.13777H30.6452L16.9556 19.2361L31.3824 38.8118ZM59.1236 38.8118L56.3857 29.8418H42.6961L39.9581 38.8118H31.3758L44.6442 0.979477H54.3849L67.7059 38.8118H59.1236ZM51.7523 14.3817C51.5767 13.7837 51.3485 13.0274 51.0678 12.1128C50.7869 11.1982 50.5061 10.2661 50.2253 9.3163C49.9445 8.36654 49.7163 7.53992 49.5409 6.83636C49.3653 7.53992 49.1196 8.4193 48.8037 9.4746C48.5229 10.4947 48.242 11.4797 47.9613 12.4294C47.7155 13.344 47.5225 13.9947 47.3821 14.3817L44.6968 23.1407H54.4902L51.7523 14.3817ZM88.421 7.25848C86.9111 7.25848 85.56 7.55745 84.3668 8.15548C83.2085 8.7535 82.2251 9.61527 81.4183 10.7409C80.6107 11.8314 79.9967 13.1681 79.5755 14.7511C79.1891 16.334 78.9963 18.1104 78.9963 20.0803C78.9963 22.7537 79.3122 25.0402 79.944 26.9397C80.6107 28.8041 81.6459 30.2287 83.0505 31.2137C84.4543 32.1986 86.2445 32.6911 88.421 32.6911C89.965 32.6911 91.4919 32.5152 93.0018 32.1634C94.5457 31.8117 96.2136 31.3192 98.0038 30.686V37.3871C96.3537 38.0555 94.7215 38.5479 93.1071 38.8645C91.4919 39.1811 89.6847 39.3394 87.6839 39.3394C83.8225 39.3394 80.6285 38.5479 78.1012 36.965C75.6088 35.3469 73.766 33.0956 72.5725 30.2111C71.3791 27.2914 70.7823 23.897 70.7823 20.0275C70.7823 17.1782 71.1685 14.5752 71.9407 12.2184C72.7129 9.82633 73.8362 7.76851 75.3104 6.04489C76.8198 4.32127 78.6625 2.98454 80.8391 2.03477C83.0505 1.08501 85.5778 0.610123 88.421 0.610123C90.2809 0.610123 92.1415 0.856331 94.0022 1.34883C95.8977 1.8061 97.7049 2.43927 99.4254 3.24836L96.8454 9.73842C95.4408 9.07009 94.0192 8.48968 92.5806 7.99718C91.176 7.50469 89.79 7.25848 88.421 7.25848ZM136.636 38.8118H127.58L113.943 19.7109V38.8118H105.992V1.13777H113.943V19.3944L127.422 1.13777H135.899L122.209 19.2361L136.636 38.8118ZM164.376 38.8118L161.639 29.8418H147.949L145.211 38.8118H136.629L149.897 0.979477H159.638L172.959 38.8118H164.376ZM157.005 14.3817C156.83 13.7837 156.602 13.0274 156.321 12.1128C156.04 11.1982 155.759 10.2661 155.478 9.3163C155.198 8.36654 154.97 7.53992 154.794 6.83636C154.619 7.53992 154.373 8.4193 154.057 9.4746C153.776 10.4947 153.495 11.4797 153.214 12.4294C152.969 13.344 152.776 13.9947 152.635 14.3817L149.95 23.1407H159.743L157.005 14.3817ZM207.153 1.13777V32.1634H212.155V49.7868H204.468V38.8118H180.932V49.7868H173.245V32.1634H176.141C177.124 30.1935 178.072 28.1182 178.984 25.9372C179.897 23.7562 180.739 21.417 181.511 18.9195C182.319 16.4219 183.038 13.7134 183.67 10.7937C184.302 7.83889 184.828 4.62024 185.249 1.13777H207.153ZM191.568 7.78612C191.322 9.61527 190.972 11.5676 190.515 13.643C190.059 15.6832 189.514 17.7763 188.882 19.922C188.286 22.0677 187.619 24.1783 186.882 26.2538C186.145 28.3292 185.355 30.299 184.512 32.1634H199.202V7.78612H191.568Z" fill="#0D1B2A"/>
</svg>
